<?xml version="1.0" encoding="utf-8"?>
<svg version="1.1" xmlns:xlink="http://www.w3.org/1999/xlink" width="12px" height="12px" viewBox="416 185.5  12 12" xmlns="http://www.w3.org/2000/svg">
  <path d="M 422 185.5  C 425.36 185.5  428 188.14  428 191.5  C 428 194.86  425.36 197.5  422 197.5  C 418.64 197.5  416 194.86  416 191.5  C 416 188.14  418.64 185.5  422 185.5  Z " fill-rule="nonzero" fill="#ffffff" stroke="none" />
  <path d="M 422 186  C 425.08 186  427.5 188.42  427.5 191.5  C 427.5 194.58  425.08 197  422 197  C 418.92 197  416.5 194.58  416.5 191.5  C 416.5 188.42  418.92 186  422 186  Z " stroke-width="1" stroke="#797979" fill="none" />
  <path d="M 422 194.5  C 420.32 194.5  419 193.18  419 191.5  C 419 189.82  420.32 188.5  422 188.5  C 423.68 188.5  425 189.82  425 191.5  C 425 193.18  423.68 194.5  422 194.5  " fill-rule="nonzero" fill="#797979" stroke="none" />
</svg>