<?xml version="1.0" encoding="utf-8"?>
<svg version="1.1" xmlns:xlink="http://www.w3.org/1999/xlink" width="12px" height="12px" viewBox="546 185.5  12 12" xmlns="http://www.w3.org/2000/svg">
  <path d="M 552 185.5  C 555.36 185.5  558 188.14  558 191.5  C 558 194.86  555.36 197.5  552 197.5  C 548.64 197.5  546 194.86  546 191.5  C 546 188.14  548.64 185.5  552 185.5  Z " fill-rule="nonzero" fill="#ffffff" stroke="none" />
  <path d="M 552 186  C 555.08 186  557.5 188.42  557.5 191.5  C 557.5 194.58  555.08 197  552 197  C 548.92 197  546.5 194.58  546.5 191.5  C 546.5 188.42  548.92 186  552 186  Z " stroke-width="1" stroke="#797979" fill="none" />
  <path d="M 552 194.5  C 550.32 194.5  549 193.18  549 191.5  C 549 189.82  550.32 188.5  552 188.5  C 553.68 188.5  555 189.82  555 191.5  C 555 193.18  553.68 194.5  552 194.5  " fill-rule="nonzero" fill="#797979" stroke="none" />
</svg>