<?xml version="1.0" encoding="utf-8"?>
<svg version="1.1" xmlns:xlink="http://www.w3.org/1999/xlink" width="12px" height="12px" viewBox="416 300.5  12 12" xmlns="http://www.w3.org/2000/svg">
  <path d="M 422 300.5  C 425.36 300.5  428 303.14  428 306.5  C 428 309.86  425.36 312.5  422 312.5  C 418.64 312.5  416 309.86  416 306.5  C 416 303.14  418.64 300.5  422 300.5  Z " fill-rule="nonzero" fill="#ffffff" stroke="none" />
  <path d="M 422 301  C 425.08 301  427.5 303.42  427.5 306.5  C 427.5 309.58  425.08 312  422 312  C 418.92 312  416.5 309.58  416.5 306.5  C 416.5 303.42  418.92 301  422 301  Z " stroke-width="1" stroke="#797979" fill="none" />
  <path d="M 422 309.5  C 420.32 309.5  419 308.18  419 306.5  C 419 304.82  420.32 303.5  422 303.5  C 423.68 303.5  425 304.82  425 306.5  C 425 308.18  423.68 309.5  422 309.5  " fill-rule="nonzero" fill="#797979" stroke="none" />
</svg>