<?xml version="1.0" encoding="utf-8"?>
<svg version="1.1" xmlns:xlink="http://www.w3.org/1999/xlink" width="12px" height="12px" viewBox="546 300.5  12 12" xmlns="http://www.w3.org/2000/svg">
  <path d="M 552 300.5  C 555.36 300.5  558 303.14  558 306.5  C 558 309.86  555.36 312.5  552 312.5  C 548.64 312.5  546 309.86  546 306.5  C 546 303.14  548.64 300.5  552 300.5  Z " fill-rule="nonzero" fill="#ffffff" stroke="none" />
  <path d="M 552 301  C 555.08 301  557.5 303.42  557.5 306.5  C 557.5 309.58  555.08 312  552 312  C 548.92 312  546.5 309.58  546.5 306.5  C 546.5 303.42  548.92 301  552 301  Z " stroke-width="1" stroke="#797979" fill="none" />
  <path d="M 552 309.5  C 550.32 309.5  549 308.18  549 306.5  C 549 304.82  550.32 303.5  552 303.5  C 553.68 303.5  555 304.82  555 306.5  C 555 308.18  553.68 309.5  552 309.5  " fill-rule="nonzero" fill="#797979" stroke="none" />
</svg>